<?xml version="1.0"?>
<svg xmlns="http://www.w3.org/2000/svg" xmlns:xlink="http://www.w3.org/1999/xlink" xmlns:svgjs="http://svgjs.com/svgjs" version="1.1" width="512" height="512" x="0" y="0" viewBox="0 0 512 512" style="enable-background:new 0 0 512 512" xml:space="preserve" class=""><g>
<path xmlns="http://www.w3.org/2000/svg" style="" d="M256,0L256,0l-20.016,256L256,512l0,0c141.385,0,256-114.615,256-256l0,0  C512,114.615,397.385,0,256,0z" fill="#5ee500" data-original="#dce4ec"/>
<path xmlns="http://www.w3.org/2000/svg" style="" d="M256,0C114.615,0,0,114.615,0,256l0,0c0,141.385,114.615,256,256,256l0,0V0L256,0z" fill="#5ee500" data-original="#f7f7f8" class=""/>
<polygon xmlns="http://www.w3.org/2000/svg" style="" points="307.266,204.734 307.266,110.922 256,110.922 235.984,255.192 256,401.078 307.266,401.078   307.266,307.266 401.078,307.266 401.078,204.734 " fill="#ffffff" data-original="#009e2a" class=""/>
<polygon xmlns="http://www.w3.org/2000/svg" style="" points="204.734,110.922 204.734,204.734 110.922,204.734 110.922,307.266 204.734,307.266   204.734,401.078 256,401.078 256,110.922 " fill="#ffffff" data-original="#00dc3b" class=""/>
<g xmlns="http://www.w3.org/2000/svg">
</g>
<g xmlns="http://www.w3.org/2000/svg">
</g>
<g xmlns="http://www.w3.org/2000/svg">
</g>
<g xmlns="http://www.w3.org/2000/svg">
</g>
<g xmlns="http://www.w3.org/2000/svg">
</g>
<g xmlns="http://www.w3.org/2000/svg">
</g>
<g xmlns="http://www.w3.org/2000/svg">
</g>
<g xmlns="http://www.w3.org/2000/svg">
</g>
<g xmlns="http://www.w3.org/2000/svg">
</g>
<g xmlns="http://www.w3.org/2000/svg">
</g>
<g xmlns="http://www.w3.org/2000/svg">
</g>
<g xmlns="http://www.w3.org/2000/svg">
</g>
<g xmlns="http://www.w3.org/2000/svg">
</g>
<g xmlns="http://www.w3.org/2000/svg">
</g>
<g xmlns="http://www.w3.org/2000/svg">
</g>
</g></svg>
